<svg xmlns="http://www.w3.org/2000/svg" width="30" height="29.969" viewBox="0 0 30 29.969">
  <defs>
    <style>
      .cls-1 {
        fill: #fff;
        fill-rule: evenodd;
      }
    </style>
  </defs>
  <path id="facebook" class="cls-1" d="M29.245,10.359A14.979,14.979,0,1,1,15,.012,14.974,14.974,0,0,1,29.245,10.359ZM15,1.361a13.625,13.625,0,1,0,12.962,9.415A13.628,13.628,0,0,0,15,1.361Zm2.036,9.321c0.406-.015.812,0,1.22,0h0.168V8.564c-0.217-.021-0.444-0.052-0.671-0.063-0.417-.018-0.834-0.039-1.251-0.029a3.07,3.07,0,0,0-1.766.545,2.645,2.645,0,0,0-1.061,1.764,6.167,6.167,0,0,0-.074.906c-0.011.474,0,.948,0,1.422v0.178H11.576v2.361h2.01v5.932h2.457V15.658h2c0.1-.786.2-1.563,0.308-2.371-0.161,0-.306,0-0.45,0-0.57,0-1.878,0-1.878,0s0.006-1.17.02-1.677A0.872,0.872,0,0,1,17.036,10.682Z"/>
</svg>
