<svg xmlns="http://www.w3.org/2000/svg" width="30" height="29.969" viewBox="0 0 30 29.969">
  <defs>
    <style>
      .cls-1 {
        fill: #fff;
        fill-rule: evenodd;
      }
    </style>
  </defs>
  <path id="instagram" class="cls-1" d="M29.246,10.359A14.98,14.98,0,1,1,15,.012,14.975,14.975,0,0,1,29.246,10.359ZM15,1.361a13.625,13.625,0,1,0,12.962,9.415A13.628,13.628,0,0,0,15,1.361Zm3.828,8.057H11.172A1.743,1.743,0,0,0,9.431,11.16v7.654a1.741,1.741,0,0,0,1.741,1.741h7.656a1.742,1.742,0,0,0,1.742-1.741V11.16A1.743,1.743,0,0,0,18.828,9.418Zm-1.444,1.536a0.31,0.31,0,0,1,.311-0.31H19.04a0.31,0.31,0,0,1,.311.31V12.3a0.311,0.311,0,0,1-.311.31H17.7a0.311,0.311,0,0,1-.311-0.31V10.954Zm-4.438,3.229a2.2,2.2,0,0,1,4.107,0,2.184,2.184,0,0,1,.152.8,2.206,2.206,0,0,1-4.411,0A2.17,2.17,0,0,1,12.947,14.183Zm6.444,4.631a0.564,0.564,0,0,1-.562.562H11.172a0.563,0.563,0,0,1-.562-0.562V14.183h1.1a3.386,3.386,0,1,0,6.579,0h1.1v4.631Z"/>
</svg>
