<svg xmlns="http://www.w3.org/2000/svg" width="30" height="29.969" viewBox="0 0 30 29.969">
  <defs>
    <style>
      .cls-1 {
        fill: #fff;
        fill-rule: evenodd;
      }
    </style>
  </defs>
  <path id="linkedin" class="cls-1" d="M29.245,10.359A14.98,14.98,0,1,1,15,.012,14.974,14.974,0,0,1,29.245,10.359ZM15,1.361a13.626,13.626,0,1,0,12.962,9.415A13.629,13.629,0,0,0,15,1.361ZM9.254,13H11.72v7.917H9.254V13Zm1.233-3.935a1.427,1.427,0,1,1-1.428,1.426,1.429,1.429,0,0,1,1.428-1.426m2.777,11.853h2.46V17c0-1.032.2-2.031,1.477-2.031,1.261,0,1.279,1.181,1.279,2.1v3.849h2.46V16.57c0-2.132-.46-3.771-2.952-3.771a2.589,2.589,0,0,0-2.33,1.278H15.625V13H13.265v7.917Z"/>
</svg>
