<svg xmlns="http://www.w3.org/2000/svg" width="30" height="29.969" viewBox="0 0 30 29.969">
  <defs>
    <style>
      .cls-1 {
        fill: #fff;
        fill-rule: evenodd;
      }
    </style>
  </defs>
  <path id="x" class="cls-1" d="M29.245,10.359A14.979,14.979,0,1,1,15,.012,14.974,14.974,0,0,1,29.245,10.359ZM15,1.361a13.625,13.625,0,1,0,12.962,9.415A13.628,13.628,0,0,0,15,1.361ZM9.991,21H8.351l4.868-5.205-4.867-6.8h4.723L15.9,12.924l3.7-3.949h1.679l-4.652,4.967,5.025,7.05H16.962L13.945,16.8Zm9.355-1.212-6.892-9.6H10.666l6.91,9.6h1.77Z"/>
</svg>
