<svg xmlns="http://www.w3.org/2000/svg" width="30" height="29.969" viewBox="0 0 30 29.969">
  <defs>
    <style>
      .cls-1 {
        fill: #fff;
        fill-rule: evenodd;
      }
    </style>
  </defs>
  <path id="youtube" class="cls-1" d="M29.245,10.359A14.979,14.979,0,1,1,15,.012,14.973,14.973,0,0,1,29.245,10.359ZM15,1.361a13.625,13.625,0,1,0,12.962,9.415A13.628,13.628,0,0,0,15,1.361ZM9.954,19.179a1.477,1.477,0,0,1-.976-0.947c-0.423-1.161-.547-6.019.266-6.975a1.573,1.573,0,0,1,1.062-.565,59.257,59.257,0,0,1,9.744.079,1.528,1.528,0,0,1,.959.921c0.462,1.2.478,5.568-.06,6.724a1.482,1.482,0,0,1-.687.693C19.443,19.539,11.03,19.532,9.954,19.179ZM13.435,16.9l3.947-2.046L13.435,12.8V16.9Z"/>
</svg>
