<svg xmlns="http://www.w3.org/2000/svg" width="20" height="11" viewBox="0 0 20 11">
  <defs>
    <style>
      .cls-1 {
        fill: #ffb81c;
        fill-rule: evenodd;
      }
    </style>
  </defs>
  <path id="ARROW" class="cls-1" d="M1299.23,925.577a0.606,0.606,0,0,1,.44.186l4.66,4.889a0.643,0.643,0,0,1,0,.892l-4.73,4.828a0.6,0.6,0,0,1-.43.181,0.588,0.588,0,0,1-.43-0.187,0.62,0.62,0,0,1-.18-0.447,0.657,0.657,0,0,1,.18-0.446l3.7-3.777-17.31.02a0.6,0.6,0,0,1-.43-0.187,0.655,0.655,0,0,1-.17-0.447,0.617,0.617,0,0,1,.61-0.627l17.27-.02-3.61-3.785a0.643,0.643,0,0,1,0-.892,0.607,0.607,0,0,1,.43-0.181" transform="translate(-1284.53 -925.562)"/>
</svg>
